<svg width="17" height="17" viewBox="0 0 17 17" fill="none" xmlns="http://www.w3.org/2000/svg">
<path d="M4.66332 0.236938C2.21265 0.236938 0.218872 2.23072 0.218872 4.68138V11.7925C0.218872 14.2432 2.21265 16.2369 4.66332 16.2369H11.7744C14.2251 16.2369 16.2189 14.2432 16.2189 11.7925V4.68138C16.2189 2.23072 14.2251 0.236938 11.7744 0.236938H4.66332ZM4.66332 2.01472H11.7744C13.2446 2.01472 14.4411 3.21116 14.4411 4.68138V11.7925C14.4411 13.2627 13.2446 14.4592 11.7744 14.4592H4.66332C3.19309 14.4592 1.99665 13.2627 1.99665 11.7925V4.68138C1.99665 3.21116 3.19309 2.01472 4.66332 2.01472ZM12.6633 2.90361C12.4276 2.90361 12.2015 2.99726 12.0348 3.16395C11.8681 3.33065 11.7744 3.55675 11.7744 3.79249C11.7744 4.02824 11.8681 4.25433 12.0348 4.42103C12.2015 4.58773 12.4276 4.68138 12.6633 4.68138C12.8991 4.68138 13.1252 4.58773 13.2919 4.42103C13.4586 4.25433 13.5522 4.02824 13.5522 3.79249C13.5522 3.55675 13.4586 3.33065 13.2919 3.16395C13.1252 2.99726 12.8991 2.90361 12.6633 2.90361ZM8.21887 3.79249C5.76821 3.79249 3.77443 5.78627 3.77443 8.23694C3.77443 10.6876 5.76821 12.6814 8.21887 12.6814C10.6695 12.6814 12.6633 10.6876 12.6633 8.23694C12.6633 5.78627 10.6695 3.79249 8.21887 3.79249ZM8.21887 5.57027C9.68909 5.57027 10.8855 6.76672 10.8855 8.23694C10.8855 9.70716 9.68909 10.9036 8.21887 10.9036C6.74865 10.9036 5.55221 9.70716 5.55221 8.23694C5.55221 6.76672 6.74865 5.57027 8.21887 5.57027Z" fill="#FAFAFA"/>
</svg>
