<svg width="17" height="17" viewBox="0 0 17 17" fill="none" xmlns="http://www.w3.org/2000/svg">
<path d="M8.49136 0.236938C4.08613 0.236938 0.499991 3.81964 0.49839 8.22444C0.49759 9.63244 0.866414 11.007 1.56568 12.2182L0.481201 16.2369L4.66755 15.2479C5.83486 15.8847 7.14894 16.219 8.48667 16.2198H8.48979C12.8942 16.2198 16.4788 12.6363 16.4812 8.23225C16.4828 6.09705 15.6524 4.08953 14.1435 2.57913C12.6345 1.06953 10.6292 0.237738 8.49136 0.236938ZM8.48979 1.83694C10.1988 1.83774 11.8048 2.50398 13.0121 3.71038C14.2194 4.91838 14.8826 6.52349 14.881 8.23069C14.8794 11.7539 12.0134 14.6198 8.48823 14.6198C7.42173 14.619 6.3653 14.3512 5.43481 13.8432L4.89569 13.5494L4.30032 13.6901L2.72517 14.0619L3.10958 12.6338L3.28304 11.9932L2.95175 11.4182C2.3933 10.4518 2.09775 9.34684 2.09855 8.22444C2.10015 4.70284 4.96705 1.83694 8.48979 1.83694ZM5.66296 4.53694C5.52934 4.53694 5.31331 4.58694 5.13009 4.78694C4.94687 4.98614 4.43002 5.4686 4.43002 6.451C4.43002 7.4334 5.14572 8.38303 5.24573 8.51663C5.34494 8.64943 6.6272 10.7291 8.657 11.5291C10.3436 12.1939 10.6861 12.0627 11.0525 12.0291C11.419 11.9963 12.2347 11.5471 12.4011 11.0807C12.5675 10.6143 12.5679 10.2131 12.5183 10.1307C12.4687 10.0475 12.3355 9.99788 12.1355 9.89788C11.9362 9.79788 10.9545 9.31584 10.7713 9.24944C10.588 9.18304 10.454 9.14944 10.3212 9.34944C10.1884 9.54944 9.80672 9.99789 9.68991 10.1307C9.5731 10.2643 9.45708 10.2823 9.25706 10.1823C9.05704 10.0815 8.41393 9.87006 7.65065 9.19006C7.05699 8.66126 6.65642 8.00881 6.5396 7.80881C6.42359 7.60961 6.52867 7.5002 6.62868 7.401C6.71828 7.3114 6.82713 7.1678 6.92714 7.051C7.02635 6.9342 7.06075 6.85099 7.12716 6.71819C7.19357 6.58539 7.15958 6.46819 7.10997 6.36819C7.06037 6.26819 6.6719 5.28214 6.49429 4.88694C6.34467 4.55494 6.18666 4.54723 6.04424 4.54163C5.92823 4.53683 5.79577 4.53694 5.66296 4.53694Z" fill="#FAFAFA"/>
</svg>
