<svg width="16" height="17" viewBox="0 0 16 17" fill="none" xmlns="http://www.w3.org/2000/svg">
<path d="M11.4351 10.0813H10.7124L10.4563 9.8343C11.3528 8.79141 11.8925 7.4375 11.8925 5.96466C11.8925 2.68049 9.23042 0.0184021 5.94625 0.0184021C2.66209 0.0184021 0 2.68049 0 5.96466C0 9.24882 2.66209 11.9109 5.94625 11.9109C7.4191 11.9109 8.77301 11.3712 9.81589 10.4747L10.0629 10.7308V11.4535L14.6369 16.0184L16 14.6553L11.4351 10.0813ZM5.94625 10.0813C3.66838 10.0813 1.82962 8.24253 1.82962 5.96466C1.82962 3.68678 3.66838 1.84802 5.94625 1.84802C8.22413 1.84802 10.0629 3.68678 10.0629 5.96466C10.0629 8.24253 8.22413 10.0813 5.94625 10.0813Z" fill="#666666" fill-opacity="0.866667"/>
</svg>
